<?xml version="1.0" encoding="UTF-8"?>
<!DOCTYPE svg PUBLIC "-//W3C//DTD SVG 1.1//EN" "http://www.w3.org/Graphics/SVG/1.1/DTD/svg11.dtd">
<!-- Creator: CorelDRAW -->
<svg xmlns="http://www.w3.org/2000/svg" xml:space="preserve" width="8.5in" height="11in" version="1.1" style="shape-rendering:geometricPrecision; text-rendering:geometricPrecision; image-rendering:optimizeQuality; fill-rule:evenodd; clip-rule:evenodd"
viewBox="0 0 8500 11000"
 xmlns:xlink="http://www.w3.org/1999/xlink"
 xmlns:rdf="http://www.w3.org/1999/02/22-rdf-syntax-ns#"
 xmlns:cc="http://creativecommons.org/ns#"
 xmlns:dc="http://purl.org/dc/elements/1.1/">
 <defs>
  <style type="text/css">
   <![CDATA[
    .fil3 {fill:#FEFEFE}
    .fil2 {fill:#FFF212}
    .fil1 {fill:black}
    .fil4 {fill:#272424;fill-rule:nonzero}
    .fil0 {fill:black;fill-rule:nonzero}
   ]]>
  </style>
 </defs>
 <g id="Layer_x0020_1">
  <metadata id="CorelCorpID_0Corel-Layer"/>
  <g id="Universitas_x0020_Pancasila_x0020__x005b_koleksilogo.com_x005d_.cdr">
   <g>
    <path class="fil0" d="M4253 2563c583,245 1052,483 1475,778 423,295 800,647 1199,1121l2 2 -1 3c-58,618 -145,1128 -301,1612 -156,484 -382,943 -720,1461l-2 2 -2 1c-620,136 -1143,213 -1662,218 -520,4 -1036,-64 -1644,-218l-3 -1 -1 -3c-324,-534 -561,-996 -726,-1477 -165,-482 -258,-983 -296,-1595l0 -3 2 -3c420,-466 796,-829 1213,-1131 418,-302 877,-543 1461,-768l3 -1 3 2zm1467 789c-421,-293 -889,-530 -1470,-775 -582,223 -1039,464 -1455,765 -416,301 -791,662 -1209,1127 37,610 130,1109 295,1588 164,480 399,940 722,1473 606,153 1120,221 1638,217 517,-5 1038,-82 1656,-218 336,-515 561,-972 717,-1454 155,-483 241,-990 300,-1607 -397,-471 -773,-822 -1194,-1116z"/>
    <path class="fil1" d="M4250 2726c1096,461 1761,892 2510,1782 -110,1161 -324,1913 -959,2884 -1164,257 -1961,290 -3102,0 -609,-1003 -888,-1734 -959,-2884 787,-876 1413,-1361 2510,-1782z"/>
    <path class="fil2" d="M4738 5062c4,-3 171,-297 236,-355 90,-78 262,-164 427,-164l78 0c63,0 173,43 207,77 101,101 35,118 26,198l-70 51c13,18 41,30 72,30l12 0c81,0 151,-98 151,-187l0 -30c0,-107 -206,-335 -265,-417 -72,-101 -153,-394 -284,-397 -66,286 -270,343 -459,499 -95,79 -141,164 -187,291 -13,34 31,88 45,174 9,50 -8,190 11,230z"/>
    <path class="fil3" d="M3907 4953l-2 25 8 114 120 -18c34,127 85,-33 85,-109 -1,-92 17,-183 -13,-258 -33,-80 -125,-77 -164,-2 -21,43 -34,181 -34,248z"/>
    <path class="fil3" d="M4491 4941l0 18 10 1 -4 156 114 0c122,0 58,47 66,-103 4,-62 3,-140 -7,-203 -18,-115 -179,-138 -179,131z"/>
    <path class="fil2" d="M2509 4821l0 18c0,143 110,193 259,193 -3,-39 -96,-89 -96,-157l0 -48c0,-107 160,-187 289,-187l84 0c59,0 353,137 362,169l32 -2 15 -26 7 4c6,-70 87,-103 162,-103 52,0 73,48 73,97l1 24 -31 373 38 0 28 -367c15,-175 -176,-338 -287,-400 -156,-87 -284,-162 -395,-293 -90,-106 -65,-56 -142,67 -45,73 -87,139 -137,207 -83,112 -262,257 -262,431z"/>
    <path class="fil2" d="M2870 4863c82,19 64,94 52,166 -12,78 -78,82 -132,115 -62,38 -257,159 -257,237l0 24c0,98 46,239 92,300 30,40 159,196 209,201 20,-84 -82,-211 -100,-340 -18,-133 26,-275 161,-275l54 0c56,0 74,27 114,30 2,-66 29,-171 56,-227 14,-29 137,-200 137,-62 60,5 72,49 72,114l0 30c0,112 -38,179 8,264 22,41 92,172 131,182 68,-49 -5,-165 -31,-234 -33,-89 -37,-183 -45,-292 -9,-119 -62,-142 -138,-200 -45,-35 -153,-117 -226,-117l-66 0c-27,0 -84,58 -91,84z"/>
    <path class="fil2" d="M3786 3573c28,42 151,186 151,229l0 12c0,56 -122,127 -175,127 -188,0 -185,-150 -313,-200 -130,-51 -282,55 -307,164 24,8 240,174 311,212 111,62 215,135 277,253 70,134 74,252 74,451 0,92 7,174 6,259 -1,120 38,166 42,223 62,-16 13,-367 12,-470 0,-115 -9,-154 79,-187 48,-19 0,-119 0,-211 164,38 120,0 120,175 108,113 115,137 115,355 0,73 -18,221 2,275 8,20 94,185 100,189l13 2 35 -442 2 -192 -22 -320 4 5 146 -50 -2 9 -19 374c48,-4 53,-155 162,-157 0,-84 56,-211 82,-280 51,-138 29,-145 135,-233 75,-63 351,-277 386,-343 -38,-56 -153,-111 -224,-139 -75,-29 -199,53 -240,103 -99,121 -80,78 -90,271 -5,89 -128,145 -223,145l-24 47 -73 -17 6 67 -250 63 -3 -9c41,151 367,-64 427,-96l31 41c-17,24 -173,157 -199,157l-60 1 -301 -43 -30 0c-33,0 -151,99 -151,30l0 -24c0,-64 69,-60 22,-142 -49,-86 23,-107 -47,-108l-59 -124c95,-8 366,-220 470,-223 188,-5 150,2 242,-101 62,-68 210,-64 216,-134 -261,-61 -583,-58 -856,6z"/>
    <path class="fil3" d="M4395 5448l0 36 -1 6 163 12 1 -23 -91 -7 0 -18c0,-51 131,36 199,36l24 -235 0 -24c0,-48 -118,18 -163,18 3,-37 64,-64 0,-69 -39,-4 -50,32 -57,72 -8,52 -31,184 -75,196z"/>
    <path class="fil3" d="M3093 5345l-1 73 8 66 1 -7 207 51 16 -12 -49 -163 -15 12 -121 -39 27 -53c36,0 132,18 132,-24l0 -79c0,-101 -17,-74 -36,-126 -119,0 -169,184 -169,301z"/>
    <path class="fil3" d="M3665 4767c-2,-31 -23,-55 -54,-55l-18 0c-118,0 -183,271 -173,415 5,82 37,165 60,235 14,40 43,235 47,242l12 16 144 -105 -3 -9 -40 -39c73,-36 165,47 45,-142 -26,-41 -41,-54 -47,-110 -10,-97 -7,-27 -75,-27l-12 0c-60,0 -43,-32 0,-36l-14 -41 95 0 33 -344z"/>
    <path class="fil2" d="M4895 5665c34,-23 73,-44 78,-97 -65,0 -170,40 -175,103l97 -6z"/>
    <path class="fil2" d="M5344 5880l-16 2c92,-22 157,-87 157,-199l0 -103c0,-75 -30,-154 -54,-205l-116 95 29 410z"/>
    <path class="fil2" d="M5461 4833c0,-40 42,-71 72,-79l0 -30c-43,-3 -72,-42 -132,-42l-37 0c-184,0 -306,182 -377,303 -35,60 -242,394 -243,438l126 0c24,-87 57,-276 133,-302 59,-21 107,39 138,68 61,56 54,52 131,15 91,-44 205,-107 324,-36 65,38 142,182 142,286 0,106 -116,308 -96,349 68,-7 289,-374 289,-494 0,-153 -91,-274 -226,-267 -24,1 -244,-76 -244,-173l0 -36z"/>
    <path class="fil2" d="M3148 5761c0,-56 -27,-46 -39,-94 -9,-33 -11,-73 -19,-108 -20,-93 -87,-127 -99,-160 -74,2 -19,83 -10,124 13,54 20,115 24,175 6,87 18,259 106,280 6,-26 37,-115 37,-139l0 -78z"/>
    <path class="fil3" d="M5262 5544c0,-141 -117,-276 -195,-348 -155,-141 -106,249 -106,342l169 -4 -51 37 68 33 -5 12c-45,22 -76,-33 -129,10 -53,45 -25,31 -95,68 -45,25 -177,34 -249,53 -50,13 -178,80 -218,107 -33,23 -159,153 -165,154l-5 13 -554 -234 7 -18 535 206c77,-49 105,-110 217,-170 40,-22 255,-102 258,-134l-14 -17 -2 -12 -556 204 -5 -14 398 -145 -13 -43 -548 141 -1 -6 0 -24c57,0 302,-42 271,-92 -1,0 -300,-35 -307,-35l-6 0c-76,0 -132,31 -193,37 5,-57 159,-63 223,-61l0 9 704 21 15 -27 -87 -80 -18 -1 3 23 -111 10 -48 -3c-84,0 -72,-31 -141,-40 -56,-7 -109,-6 -166,-9 -86,-3 -78,-15 -155,15 -27,10 -131,32 -135,-8 104,0 177,-1 151,-97l0 -13 229 3 2 15 -106 -263 -192 17 1 6c-21,15 -14,157 -26,191 -36,98 -61,42 -123,89 -43,32 -21,93 -88,122 -69,31 -95,31 -95,105l-12 0c11,-131 -262,90 -271,96l10 -12 -50 -40 -14 -6 141 -54 4 10 0 -85 -7 11 -92 -55 -203 -30c0,71 99,310 134,356 49,65 197,181 275,219 253,121 60,94 359,56 138,-18 305,-38 449,-38l157 0 337 35 12 1c20,0 248,-188 269,-214 64,-79 159,-185 159,-323l0 -72z"/>
    <path class="fil2" d="M4925 6177c186,4 67,84 287,-20 90,-42 208,-25 325,-37 176,-17 161,-16 263,-110 37,-34 146,-176 143,-219 -69,6 -193,198 -490,210 -114,4 -234,1 -319,35 -45,18 -206,100 -209,141z"/>
    <path class="fil2" d="M2648 6068l0 -18 -19 0c4,139 185,253 344,229l241 -29 36 -1 3 21 312 -43 -2 -14 0 -18c-20,-2 -167,-50 -224,-59 -75,-12 -185,-25 -253,-8 -94,24 -127,24 -228,7 -66,-11 -169,-63 -210,-67z"/>
    <path class="fil2" d="M2931 6623c26,40 82,98 115,138 47,57 57,110 132,55 70,-51 255,-127 341,-159 272,-103 465,-159 822,-161 295,-1 542,80 795,168 97,34 250,114 335,167 68,42 71,3 120,-71 21,-32 96,-118 99,-149 -60,-16 -210,-133 -294,-170 -104,-47 -209,-92 -323,-135 -257,-95 -469,-113 -762,-132 -524,-34 -1071,242 -1380,449z"/>
    <path class="fil2" d="M3906 6702c38,49 87,99 174,93 94,-6 89,-107 42,-159 -65,-70 -173,18 -23,53l-24 46 -6 -4c-53,26 -147,-115 -156,-156 -139,3 -55,65 -7,127z"/>
    <path class="fil2" d="M4630 6798c92,0 325,-223 150,-223 -14,59 -183,258 -187,114 81,-7 91,-69 37,-76 -44,-6 -91,40 -91,76l0 48c0,35 50,61 91,61z"/>
    <path class="fil2" d="M3328 6856l-24 -64 -30 0c-57,0 -114,65 -157,66l0 18 37 0 0 -11 174 -9z"/>
    <path class="fil2" d="M5870 6979c19,-81 121,-158 121,-242l0 -18c0,-31 -52,-125 -78,-132 -17,24 -22,80 -38,113 -11,22 -45,58 -64,87 -50,78 20,181 59,192z"/>
    <path class="fil2" d="M2895 6912c-8,-29 -98,-97 -125,-129 -60,-72 -62,-68 -120,23 -40,63 -27,134 27,174 11,8 148,94 151,95l-8 -4 75 -159z"/>
    <path class="fil2" d="M5810 6991c0,-59 -59,-75 -60,-157 -1,-81 -13,-138 -95,-96 -120,60 19,145 -256,160 -257,14 90,137 119,150 43,20 112,50 154,63 57,17 138,-9 138,-60l0 -60z"/>
    <path class="fil2" d="M2882 7129c0,29 54,42 85,42 116,0 386,-169 391,-229 -5,-20 -34,-42 -60,-42l-30 0c-76,0 -110,55 -176,-11 -21,-20 -87,-121 -107,-121l-30 0c-19,0 -38,40 -67,48 0,83 83,60 52,128 -20,43 -58,81 -58,137l0 48z"/>
    <path class="fil2" d="M4033 6942c0,43 69,85 81,36 5,-20 -36,-103 49,-71 95,36 35,149 -39,175 -131,46 -272,-236 -410,-170l61 59 -7 8c-26,27 -166,31 -193,115 -27,88 33,162 127,162l30 0c59,0 98,-50 84,-109 -61,-14 -190,115 -187,-30 2,0 62,-42 79,-42l96 0c6,0 287,90 289,90l67 0c64,0 156,-87 156,-156l0 -30c0,-165 -283,-179 -283,-73l0 36z"/>
    <path class="fil2" d="M4925 6906c-98,0 -182,139 -292,173 -72,22 -129,-20 -147,-73 -30,-92 95,-124 95,-82l0 36c0,40 -18,43 49,43 34,-97 49,-174 -100,-165 -95,5 -153,76 -153,177l0 12c0,61 105,138 174,138l30 0c94,0 468,-184 482,-12 -35,13 3,36 -48,36l-12 0c-110,0 -26,-48 -126,-48 -13,54 -2,109 66,109l108 0c49,0 177,-189 -126,-259l18 -61c47,-1 32,-24 12,-24l-30 0z"/>
    <path class="fil3" d="M3828 4411c52,0 96,-72 145,-96 54,-28 109,-54 163,-78 85,-38 61,-75 130,-111 89,-48 92,-23 92,-155 122,-3 89,24 168,-62 14,-16 105,-140 105,-143 0,-92 -272,92 -314,115 -167,90 -398,358 -489,530z"/>
    <path class="fil4" d="M3047 6614l23 -15 59 84c9,13 15,21 19,25 5,6 11,9 17,10 7,2 13,0 20,-4 7,-4 10,-9 11,-15 1,-6 0,-12 -3,-17 -3,-6 -9,-15 -18,-27l-60 -85 24 -15 57 81c13,18 21,32 25,40 5,8 7,16 7,24 0,7 -1,14 -5,21 -3,7 -10,13 -19,19 -11,7 -20,11 -28,11 -9,1 -16,-1 -23,-4 -7,-3 -14,-8 -19,-13 -8,-8 -17,-20 -30,-38l-57 -82zm225 77l-94 -162 24 -13 112 82 -62 -109 22 -12 94 163 -24 13 -111 -80 61 106 -22 12zm122 -64l-88 -165 25 -13 88 166 -25 12zm82 -39l-124 -151 28 -12 90 112 -27 -139 27 -11 34 189 -28 12zm86 -35l-63 -175 98 -33 11 30 -71 24 14 38 66 -21 11 29 -67 22 17 48 74 -24 11 29 -101 33zm123 -43l-50 -179 57 -15c15,-4 26,-5 33,-3 8,1 14,5 21,13 6,7 10,16 13,27 4,13 4,25 1,35 -4,10 -11,18 -22,24 7,3 13,6 19,11 5,4 13,13 23,25l26 31 -32 8 -31 -34c-11,-12 -18,-19 -21,-22 -4,-3 -7,-5 -11,-6 -3,0 -8,0 -14,2l-6 1 21 75 -27 7zm-2 -111l21 -5c13,-3 21,-6 23,-8 3,-2 5,-6 6,-10 1,-4 1,-9 -1,-14 -2,-6 -4,-11 -8,-14 -3,-3 -7,-4 -12,-4 -2,0 -9,2 -20,4l-21 6 12 45zm119 18l26 -9c4,11 10,20 16,24 6,5 13,6 22,5 9,-2 15,-6 18,-12 4,-6 5,-12 3,-19 -1,-4 -3,-8 -5,-10 -3,-3 -7,-5 -12,-6 -3,-1 -11,-2 -24,-4 -16,-2 -27,-5 -35,-11 -10,-9 -17,-20 -21,-34 -2,-10 -2,-19 1,-28 2,-8 6,-16 13,-21 6,-6 15,-10 25,-12 17,-4 31,-1 42,7 11,8 19,21 23,37l-28 7c-3,-9 -7,-15 -12,-18 -4,-4 -11,-4 -18,-3 -8,2 -14,5 -18,11 -2,3 -3,7 -2,12 1,4 3,8 7,10 4,3 14,6 28,7 14,1 25,4 33,7 7,3 13,8 19,15 5,8 9,17 12,28 2,11 2,21 0,31 -3,10 -7,18 -14,24 -7,6 -17,10 -29,13 -17,3 -31,1 -43,-8 -12,-9 -21,-23 -27,-43zm146 35l-34 -183 28 -5 34 183 -28 5zm86 -15l-22 -152 -41 5 -5 -31 110 -15 4 31 -40 6 22 153 -28 3zm200 -14l-31 2 -15 -42 -55 3 -10 43 -29 2 44 -189 30 -1 66 182zm-56 -70l-23 -68 -15 70 38 -2zm60 9l28 -4c2,12 5,21 10,27 6,6 12,8 21,8 9,0 16,-3 20,-8 5,-5 7,-11 7,-18 0,-4 -1,-8 -3,-11 -2,-3 -6,-6 -10,-8 -4,-1 -11,-4 -23,-8 -15,-4 -26,-10 -32,-17 -9,-11 -14,-23 -14,-38 0,-9 2,-18 6,-26 4,-9 9,-15 17,-19 7,-5 16,-7 27,-7 18,-1 31,4 40,14 9,10 14,24 15,41l-28 2c-2,-9 -5,-16 -9,-20 -4,-4 -10,-6 -18,-6 -8,0 -14,2 -19,7 -3,3 -4,7 -4,11 0,5 2,9 4,12 4,3 13,8 27,12 13,4 24,8 30,12 7,5 12,11 16,19 4,8 6,18 6,30 0,10 -2,20 -6,30 -4,9 -10,16 -18,21 -9,4 -19,7 -31,7 -17,0 -31,-5 -41,-16 -9,-10 -15,-26 -18,-47zm193 64l10 -186 45 3c18,1 29,2 34,4 8,3 14,10 19,19 5,10 7,22 6,37 -1,11 -3,21 -6,28 -4,8 -8,14 -13,18 -5,4 -10,7 -15,8 -7,2 -17,2 -30,1l-18 -1 -4 70 -28 -1zm37 -153l-3 53 15 1c11,0 19,0 23,-2 3,-2 7,-5 9,-9 2,-4 4,-9 4,-14 0,-7 -1,-12 -4,-17 -2,-5 -6,-7 -11,-9 -3,-1 -10,-2 -20,-2l-13 -1zm203 179l-30 -4 -6 -44 -55 -7 -18 40 -29 -4 80 -177 30 4 28 192zm-40 -80l-9 -71 -29 66 38 5zm57 82l40 -182 27 6 29 133 27 -122 25 5 -40 182 -28 -5 -28 -130 -27 118 -25 -5zm241 -12l23 18c-9,19 -20,31 -32,39 -12,7 -26,8 -40,5 -18,-5 -30,-17 -37,-36 -7,-19 -7,-43 1,-71 8,-30 21,-52 37,-66 16,-13 34,-17 53,-13 16,5 28,15 34,30 4,9 6,22 5,37l-29 1c1,-9 -1,-18 -4,-24 -4,-7 -9,-11 -16,-13 -10,-3 -20,0 -29,8 -9,8 -16,23 -22,44 -6,23 -8,40 -4,51 3,11 10,18 19,21 8,1 15,0 22,-5 7,-5 13,-13 19,-26zm149 121l-29 -10 3 -44 -53 -17 -25 36 -28 -9 114 -159 28 9 -10 194zm-24 -86l5 -71 -41 59 36 12zm55 36l26 7c-3,12 -4,22 -2,29 2,7 7,13 15,16 8,4 16,4 22,1 6,-3 11,-7 14,-14 2,-4 3,-8 2,-11 0,-4 -2,-7 -6,-11 -2,-3 -8,-9 -17,-17 -12,-10 -19,-20 -21,-29 -4,-13 -2,-26 4,-39 4,-9 10,-16 17,-22 7,-6 15,-9 24,-10 8,-1 18,0 27,4 17,7 26,17 30,30 4,13 2,27 -4,43l-27 -10c3,-9 4,-16 2,-22 -2,-5 -7,-9 -14,-12 -7,-3 -14,-4 -20,-2 -4,2 -7,5 -9,9 -2,4 -3,8 -1,12 1,5 7,12 18,22 11,9 18,17 22,24 4,6 6,14 6,23 0,9 -2,18 -7,29 -5,10 -11,18 -19,25 -8,7 -17,10 -26,11 -9,1 -20,0 -31,-5 -16,-7 -26,-17 -30,-31 -4,-14 -2,-30 5,-50zm98 110l88 -165 25 12 -88 166 -25 -13zm50 27l93 -161 24 13 -77 134 61 33 -15 27 -86 -46zm206 126l-25 -17 14 -41 -46 -30 -34 29 -25 -16 154 -125 24 16 -62 184zm0 -89l24 -68 -56 48 32 20z"/>
    <polygon class="fil2" points="4161,3028 4236,2816 4237,3129 "/>
    <polygon class="fil2" points="3920,3043 4132,3042 4202,3136 "/>
    <polygon class="fil2" points="4091,3205 3912,3070 4206,3167 "/>
    <path class="fil2" d="M4236 3330l-174 120 175 -234 -1 114zm-204 111l64 -202 117 -41 -181 243z"/>
    <path class="fil2" d="M4407 3233l63 206 -184 -246 121 40zm26 211l-168 -118 0 -106 168 224z"/>
    <polygon class="fil2" points="4588,3071 4407,3204 4296,3167 "/>
    <polygon class="fil2" points="4369,3038 4582,3043 4295,3136 "/>
    <polygon class="fil2" points="4265,2817 4338,3031 4265,3128 "/>
   </g>
  </g>
 </g>
</svg>
